<svg width="48" height="48" viewBox="0 0 48 48" fill="none" xmlns="http://www.w3.org/2000/svg">
<path d="M0 24C0 10.7452 10.7452 0 24 0C37.2548 0 48 10.7452 48 24C48 37.2548 37.2548 48 24 48C10.7452 48 0 37.2548 0 24Z" fill="#EBF0FE"/>
<path d="M14 20.3772C14 20.0269 14 19.8517 14.0146 19.7042C14.1556 18.2813 15.2813 17.1556 16.7042 17.0146C16.8517 17 17.0364 17 17.4056 17C17.5479 17 17.619 17 17.6794 16.9963C18.4506 16.9496 19.126 16.4629 19.4141 15.746C19.4367 15.6899 19.4578 15.6266 19.5 15.5C19.5422 15.3734 19.5633 15.3101 19.5859 15.254C19.874 14.5371 20.5494 14.0504 21.3206 14.0037C21.381 14 21.4477 14 21.5811 14H26.4189C26.5523 14 26.619 14 26.6794 14.0037C27.4506 14.0504 28.126 14.5371 28.4141 15.254C28.4367 15.3101 28.4578 15.3734 28.5 15.5C28.5422 15.6266 28.5633 15.6899 28.5859 15.746C28.874 16.4629 29.5494 16.9496 30.3206 16.9963C30.381 17 30.4521 17 30.5944 17C30.9636 17 31.1483 17 31.2958 17.0146C32.7187 17.1556 33.8444 18.2813 33.9854 19.7042C34 19.8517 34 20.0269 34 20.3772V28.2C34 29.8802 34 30.7202 33.673 31.362C33.3854 31.9265 32.9265 32.3854 32.362 32.673C31.7202 33 30.8802 33 29.2 33H18.8C17.1198 33 16.2798 33 15.638 32.673C15.0735 32.3854 14.6146 31.9265 14.327 31.362C14 30.7202 14 29.8802 14 28.2V20.3772Z" stroke="#2857C6" stroke-width="2" stroke-linecap="round" stroke-linejoin="round"/>
<path d="M24 28.5C26.2091 28.5 28 26.7091 28 24.5C28 22.2909 26.2091 20.5 24 20.5C21.7909 20.5 20 22.2909 20 24.5C20 26.7091 21.7909 28.5 24 28.5Z" stroke="#2857C6" stroke-width="2" stroke-linecap="round" stroke-linejoin="round"/>
</svg>
