<svg width="24" height="24" viewBox="0 0 24 24" fill="none" xmlns="http://www.w3.org/2000/svg">
<path d="M12.0417 7.26348C13.8579 4.93477 16.6034 3.58369 19.5013 3.58369C19.7022 3.58369 19.8892 3.75512 19.8892 3.99665C19.8892 6.98553 18.5645 9.80791 16.296 11.6694L11.0326 15.9886C10.8813 16.1127 10.6664 16.1018 10.5269 15.9588L7.86025 13.2235C7.71473 13.0742 7.70033 12.8299 7.8309 12.6625L12.0417 7.26348ZM19.5013 2.40879C16.2347 2.40879 13.15 3.93203 11.1152 6.54093L6.90445 11.9399C6.41415 12.5686 6.46164 13.4719 7.01898 14.0436L9.68568 16.779C10.249 17.3568 11.153 17.4096 11.7779 16.8968L17.0413 12.5776C19.5866 10.489 21.0641 7.33101 21.0641 3.99665C21.0641 3.13411 20.3786 2.40879 19.5013 2.40879Z" fill="#2979FF" stroke="#2979FF" stroke-width="0.2" stroke-linecap="round" stroke-linejoin="round"/>
<path d="M10.7844 19.0906C10.7845 19.0908 10.7845 19.091 10.7846 19.0912C10.9255 19.5241 11.2445 19.8788 11.6654 20.0576C12.0873 20.2369 12.5649 20.2193 12.9726 20.0102L12.9726 20.0102L12.9732 20.0099L15.3289 18.8017C15.8604 18.5291 16.1874 17.9777 16.1874 17.3842V13.0004C16.1874 12.6759 15.9244 12.4129 15.5999 12.4129C15.2755 12.4129 15.0125 12.6759 15.0125 13.0004V17.3842C15.0125 17.5484 14.9222 17.6899 14.7927 17.7563L14.7927 17.7563L12.4365 18.9648L12.4364 18.9648L12.4354 18.9653C12.3376 19.0151 12.2251 19.0189 12.1249 18.9763C12.0235 18.9332 11.9398 18.8445 11.9018 18.7275L11.9016 18.7268L11.9016 18.7268L11.2821 16.8205C11.1818 16.5119 10.8504 16.3431 10.5419 16.4434C10.2333 16.5436 10.0645 16.875 10.1647 17.1836L10.7844 19.0906L10.7844 19.0906L10.7844 19.0906Z" fill="#2979FF" stroke="#2979FF" stroke-width="0.2" stroke-linecap="round" stroke-linejoin="round"/>
<path d="M6.10547 8.80874L6.10549 8.80875L6.10587 8.80792C6.17531 8.6662 6.31099 8.58576 6.44969 8.58576H10.7235C11.0479 8.58576 11.3109 8.32275 11.3109 7.99831C11.3109 7.67387 11.0479 7.41086 10.7235 7.41086H6.44969C5.84969 7.41086 5.31036 7.75851 5.04937 8.29393L5.04936 8.29393L5.04933 8.294L5.04933 8.294L3.87137 10.7105L3.8712 10.7109L3.87119 10.7109C3.67173 11.1201 3.65541 11.5965 3.82582 12.0185C3.99644 12.441 4.33995 12.7725 4.77311 12.9206L6.6322 13.5563C6.93919 13.6612 7.27315 13.4974 7.37811 13.1905C7.48308 12.8835 7.3193 12.5495 7.01231 12.4445L5.15323 11.8089C5.04989 11.7736 4.96098 11.6918 4.91524 11.5785C4.86926 11.4647 4.87389 11.3353 4.92729 11.2257C4.92729 11.2257 4.9273 11.2257 4.9273 11.2257L4.92731 11.2257L6.10547 8.80874Z" fill="#2979FF" stroke="#2979FF" stroke-width="0.2" stroke-linecap="round" stroke-linejoin="round"/>
<mask id="path-4-outside-1_2302_190" maskUnits="userSpaceOnUse" x="1.43359" y="15.0151" width="7" height="7" fill="black">
<rect fill="white" x="1.43359" y="15.0151" width="7" height="7"/>
<path fill-rule="evenodd" clip-rule="evenodd" d="M6.37346 17.4449C6.03219 17.0949 5.55291 16.9346 5.0821 17.0072L5.08209 17.0072C4.43064 17.1076 3.90706 17.6353 3.8063 18.3233L3.8063 18.3233L3.49898 20.4216L5.52899 20.1088L5.52901 20.1088C6.18046 20.0084 6.70406 19.4807 6.80483 18.7928C6.87761 18.2959 6.71554 17.7958 6.37346 17.4449ZM4.93361 16.0437C5.72031 15.9224 6.5136 16.1921 7.07152 16.7644C7.62861 17.3358 7.88561 18.141 7.76944 18.9341C7.60873 20.0311 6.76622 20.9046 5.67746 21.0723L2.99529 21.4857C2.84242 21.5092 2.68744 21.4588 2.57766 21.3499C2.46788 21.2409 2.41633 21.0863 2.43874 20.9333L2.84169 18.182C2.84169 18.182 2.84169 18.182 2.84169 18.182C3.00236 17.085 3.84485 16.2115 4.93359 16.0437"/>
</mask>
<path fill-rule="evenodd" clip-rule="evenodd" d="M6.37346 17.4449C6.03219 17.0949 5.55291 16.9346 5.0821 17.0072L5.08209 17.0072C4.43064 17.1076 3.90706 17.6353 3.8063 18.3233L3.8063 18.3233L3.49898 20.4216L5.52899 20.1088L5.52901 20.1088C6.18046 20.0084 6.70406 19.4807 6.80483 18.7928C6.87761 18.2959 6.71554 17.7958 6.37346 17.4449ZM4.93361 16.0437C5.72031 15.9224 6.5136 16.1921 7.07152 16.7644C7.62861 17.3358 7.88561 18.141 7.76944 18.9341C7.60873 20.0311 6.76622 20.9046 5.67746 21.0723L2.99529 21.4857C2.84242 21.5092 2.68744 21.4588 2.57766 21.3499C2.46788 21.2409 2.41633 21.0863 2.43874 20.9333L2.84169 18.182C2.84169 18.182 2.84169 18.182 2.84169 18.182C3.00236 17.085 3.84485 16.2115 4.93359 16.0437" fill="#2979FF"/>
<path d="M4.94883 16.1425C5.00341 16.1341 5.04085 16.083 5.03245 16.0285C5.02404 15.9739 4.97298 15.9364 4.91839 15.9448L4.94883 16.1425ZM4.91838 15.9448C4.86379 15.9533 4.82635 16.0043 4.83476 16.0589C4.84316 16.1135 4.89423 16.1509 4.94881 16.1425L4.91838 15.9448ZM4.94881 16.1425L4.94883 16.1425L4.91839 15.9448L4.91838 15.9448L4.94881 16.1425ZM5.0821 17.0072L5.05164 16.8095L5.05158 16.8095L5.0821 17.0072ZM6.37346 17.4449L6.51666 17.3053L6.37346 17.4449ZM5.08209 17.0072L5.11255 17.2049L5.11261 17.2049L5.08209 17.0072ZM3.8063 18.3233L3.60837 18.2943L3.60784 18.2985L3.8063 18.3233ZM3.8063 18.3233L4.00423 18.3523L4.00475 18.3481L3.8063 18.3233ZM3.49898 20.4216L3.30109 20.3927C3.29189 20.4554 3.31304 20.5189 3.35808 20.5636C3.40313 20.6083 3.46671 20.629 3.52944 20.6193L3.49898 20.4216ZM5.52899 20.1088L5.49903 19.9111L5.49853 19.9111L5.52899 20.1088ZM5.52901 20.1088L5.55897 20.3066L5.55946 20.3065L5.52901 20.1088ZM6.80483 18.7928L6.60695 18.7638V18.7638L6.80483 18.7928ZM7.07152 16.7644L7.21473 16.6247V16.6247L7.07152 16.7644ZM4.90315 15.846C4.79398 15.8628 4.71912 15.965 4.73594 16.0741C4.75277 16.1833 4.85491 16.2582 4.96408 16.2413L4.90315 15.846ZM7.76944 18.9341L7.57155 18.9051L7.57155 18.9051L7.76944 18.9341ZM5.67746 21.0723L5.647 20.8747L5.647 20.8747L5.67746 21.0723ZM2.99529 21.4857L3.02575 21.6833L2.99529 21.4857ZM2.57766 21.3499L2.43677 21.4918H2.43677L2.57766 21.3499ZM2.43874 20.9333L2.63663 20.9622L2.43874 20.9333ZM2.84169 18.182L3.03958 18.211L3.0396 18.2109L2.84169 18.182ZM2.84169 18.182L2.6438 18.153L2.64378 18.1532L2.84169 18.182ZM4.96406 16.2414C5.07322 16.2245 5.14808 16.1224 5.13126 16.0132C5.11444 15.9041 5.0123 15.8292 4.90313 15.846L4.96406 16.2414ZM5.11257 17.2049C5.5186 17.1423 5.93345 17.2801 6.23025 17.5845L6.51666 17.3053C6.13093 16.9096 5.58723 16.727 5.05164 16.8095L5.11257 17.2049ZM5.11261 17.2049L5.11262 17.2049L5.05158 16.8095L5.05157 16.8096L5.11261 17.2049ZM4.00419 18.3523C4.09263 17.7484 4.55064 17.2915 5.11255 17.2049L5.05163 16.8095C4.31063 16.9237 3.72148 17.5223 3.60841 18.2943L4.00419 18.3523ZM4.00475 18.3481L4.00475 18.3481L3.60784 18.2985L3.60784 18.2985L4.00475 18.3481ZM3.69686 20.4506L4.00419 18.3523L3.60841 18.2943L3.30109 20.3927L3.69686 20.4506ZM5.49853 19.9111L3.46851 20.224L3.52944 20.6193L5.55945 20.3065L5.49853 19.9111ZM5.49905 19.9111L5.49903 19.9111L5.55895 20.3066L5.55897 20.3066L5.49905 19.9111ZM6.60695 18.7638C6.51849 19.3676 6.06046 19.8246 5.49856 19.9111L5.55946 20.3065C6.30047 20.1923 6.88963 19.5938 7.00272 18.8218L6.60695 18.7638ZM6.23025 17.5845C6.52824 17.8902 6.67082 18.3277 6.60695 18.7638L7.00272 18.8218C7.08441 18.2641 6.90284 17.7014 6.51666 17.3053L6.23025 17.5845ZM7.21473 16.6247C6.61237 16.0069 5.75467 15.7148 4.90315 15.846L4.96408 16.2413C5.68596 16.1301 6.41483 16.3773 6.92831 16.904L7.21473 16.6247ZM7.96732 18.9631C8.0924 18.1092 7.81594 17.2414 7.21473 16.6247L6.92831 16.904C7.44129 17.4302 7.67882 18.1728 7.57155 18.9051L7.96732 18.9631ZM5.70791 21.27C6.88649 21.0884 7.79434 20.1439 7.96732 18.9631L7.57155 18.9051C7.42312 19.9183 6.64595 20.7208 5.647 20.8747L5.70791 21.27ZM3.02575 21.6833L5.70792 21.27L5.647 20.8747L2.96483 21.288L3.02575 21.6833ZM2.43677 21.4918C2.59159 21.6455 2.81015 21.7166 3.02575 21.6833L2.96483 21.288C2.87468 21.3019 2.78329 21.2722 2.71855 21.2079L2.43677 21.4918ZM2.24086 20.9043C2.20924 21.1201 2.28195 21.3381 2.43677 21.4918L2.71855 21.2079C2.65381 21.1437 2.62342 21.0525 2.63663 20.9622L2.24086 20.9043ZM2.6438 18.153L2.24086 20.9043L2.63663 20.9622L3.03958 18.211L2.6438 18.153ZM2.64378 18.1532L2.64378 18.1532L3.0396 18.2109L3.0396 18.2109L2.64378 18.1532ZM4.90313 15.846C3.72457 16.0276 2.81675 16.9722 2.6438 18.153L3.03958 18.211C3.18798 17.1978 3.96512 16.3953 4.96406 16.2414L4.90313 15.846Z" fill="#2979FF" mask="url(#path-4-outside-1_2302_190)"/>
</svg>
